<svg width="117px" height="96px" viewBox="0 0 117 96" version="1.1" xmlns="http://www.w3.org/2000/svg" xmlns:xlink="http://www.w3.org/1999/xlink" xmlns:sketch="http://www.bohemiancoding.com/sketch/ns">
  <g id="Muffin" stroke="none" stroke-width="1" fill="none" fill-rule="evenodd" sketch:type="MSPage">
    <path d="M0.791,34.173 C0.791,45.455 9.717,54.418 20.168,57.266 C25.792,58.799 31.833,58.68 37.401,56.968 C37.724,56.869 38.499,56.453 38.803,56.619 C39.508,57.003 40.209,57.395 40.925,57.76 C43.519,59.082 46.271,60.088 49.101,60.77 C54.92,62.172 61.061,62.209 66.899,60.891 C69.608,60.279 72.247,59.373 74.754,58.18 C75.067,58.031 75.835,57.467 76.164,57.604 C76.942,57.93 77.717,58.266 78.507,58.562 C89.379,62.639 102.685,60.14 110.632,51.447 C117.503,43.934 118.662,32.825 113.046,24.27 C107.996,16.58 98.888,12.329 89.83,12.159 C88.845,12.14 87.861,12.177 86.878,12.24 C86.308,12.277 85.795,12.478 85.386,12.061 C83.927,10.576 82.436,9.147 80.768,7.893 C76.534,4.708 71.576,2.53 66.4,1.428 C55.749,-0.842 44.128,1.43 35.452,8.118 C34.796,8.624 34.166,9.16 33.539,9.701 C33.012,10.158 32.941,10.326 32.267,10.259 C30.044,10.039 27.83,9.937 25.6,10.126 C21.141,10.504 16.763,11.855 12.912,14.146 C5.841,18.348 0.791,25.792 0.791,34.173 L0.791,34.173 Z" id="Bottom" fill="#010202" sketch:type="MSShapeGroup"></path>
    <path d="M87.102,87.184 C87.996,86.213 88.675,85.019 89.347,83.892 C90.438,82.059 91.453,80.18 92.451,78.294 C94.999,73.479 97.415,68.594 99.83,63.711 C94.132,65.572 87.931,65.876 82.068,64.636 C80.708,64.348 79.365,63.976 78.05,63.522 C77.404,63.299 76.765,63.055 76.134,62.792 C75.425,63.127 74.706,63.442 73.98,63.736 C71.321,64.81 68.549,65.6 65.726,66.101 C59.882,67.138 53.811,66.949 48.047,65.527 C45.3,64.849 42.622,63.891 40.074,62.659 C39.475,62.37 38.885,62.066 38.302,61.747 C37.622,61.955 36.937,62.142 36.245,62.306 C34.715,62.67 33.159,62.927 31.593,63.077 C26.917,63.526 22.149,63.032 17.677,61.584 C20.193,66.676 22.702,71.773 25.328,76.809 C27.084,80.176 28.769,83.857 31.162,86.836 C34.562,91.071 40.404,93.249 45.511,94.489 C51.095,95.845 56.883,96.098 62.577,95.883 C67.037,95.715 71.504,95.075 75.768,93.733 C79.938,92.421 84.102,90.449 87.102,87.184 C89.365,84.723 85.348,89.093 87.102,87.184 L87.102,87.184 Z" id="Top" fill="#010202" sketch:type="MSShapeGroup"></path>
  </g>
</svg>
